# xmcd
#
# Track frame offsets:
# 150
# 15426
# 29283
# 40758
# 51909
# 90462
#
# Disc length: 4770 seconds
#
#
# Revision: 2
# Processed by: cddbd v1.5.1PL2 Copyright (c) Steve Scherf et al.
# Submitted via: FreeRIP 2.944 
#
DISCID=3b12a006
DTITLE=mosermeyerdöring feat. jovanka v. willsdorf - watching the daybreak
DYEAR=1900
DGENRE=
TTITLE0=watching the daybreak (radio version)
TTITLE1=watching the daybreak (xmas version)
TTITLE2=watching the daybreak (instrumental)
TTITLE3=Bericht
TTITLE4=watching the daybreak (extended album version)
TTITLE5=Kopierschutz oder so :)
EXTD=Diese CD soll angeblich in Cdrom-Laufwerken nicht abspielbar sein.\nKann ich nicht bestätigen :)
EXTT0=
EXTT1=
EXTT2=
EXTT3=
EXTT4=
EXTT5=
PLAYORDER=
